<svg width="35" height="35" viewBox="0 0 35 35" fill="none" xmlns="http://www.w3.org/2000/svg">
<path d="M22.2852 17.5C21.9078 17.5 21.6016 17.8063 21.6016 18.1836C21.6016 18.5609 21.9078 18.8672 22.2852 18.8672C22.6625 18.8672 22.9688 18.5609 22.9688 18.1836C22.9688 17.8063 22.6625 17.5 22.2852 17.5Z" fill="#036C5F"/>
<path d="M28.4375 28.4375H27.6209L25.3954 15.9605C24.9812 13.6838 23.001 12.0312 20.6869 12.0312H14.3131C11.9986 12.0312 10.0186 13.6838 9.60483 15.9628L7.37912 28.4375H6.5625C5.4317 28.4375 4.51172 29.3575 4.51172 30.4883V33.2227C4.51172 33.6001 4.81776 33.9062 5.19531 33.9062H29.8047C30.1822 33.9062 30.4883 33.6001 30.4883 33.2227V30.4883C30.4883 29.3575 29.5683 28.4375 28.4375 28.4375ZM10.9504 16.205C11.2457 14.5788 12.6599 13.3984 14.3131 13.3984H20.6869C22.3399 13.3984 23.7544 14.5789 24.0499 16.2029L26.2321 28.4375H8.76791L10.9504 16.205ZM29.1211 32.5391H5.87891V30.4883C5.87891 30.1113 6.18557 29.8047 6.5625 29.8047C8.09874 29.8047 27.5067 29.8047 28.4375 29.8047C28.8144 29.8047 29.1211 30.1113 29.1211 30.4883V32.5391Z" fill="#036C5F"/>
<path d="M24.489 26.2653L23.4862 20.7452C23.4187 20.3736 23.0622 20.127 22.6914 20.1948C22.3199 20.2623 22.0735 20.6181 22.141 20.9896L23.1438 26.5096C23.2118 26.8839 23.5705 27.1273 23.9386 27.06C24.3101 26.9925 24.5566 26.6367 24.489 26.2653Z" fill="#036C5F"/>
<path d="M34.3164 17.5H28.4375C28.06 17.5 27.7539 17.8061 27.7539 18.1836C27.7539 18.5611 28.06 18.8672 28.4375 18.8672H34.3164C34.6939 18.8672 35 18.5611 35 18.1836C35 17.8061 34.6939 17.5 34.3164 17.5Z" fill="#036C5F"/>
<path d="M6.5625 17.5H0.683594C0.306045 17.5 0 17.8061 0 18.1836C0 18.5611 0.306045 18.8672 0.683594 18.8672H6.5625C6.94005 18.8672 7.24609 18.5611 7.24609 18.1836C7.24609 17.8061 6.94005 17.5 6.5625 17.5Z" fill="#036C5F"/>
<path d="M29.5846 6.09859C29.3176 5.83172 28.8849 5.83172 28.6178 6.09859L24.7507 9.96568C24.4838 10.2326 24.4838 10.6655 24.7507 10.9325C25.0178 11.1994 25.4505 11.1994 25.7176 10.9325L29.5846 7.0654C29.8517 6.79839 29.8517 6.36554 29.5846 6.09859Z" fill="#036C5F"/>
<path d="M10.2492 9.96571L6.3821 6.09862C6.11509 5.83174 5.68231 5.83168 5.4153 6.09862C5.14835 6.36556 5.14835 6.79841 5.4153 7.06543L9.28239 10.9325C9.54947 11.1995 9.98218 11.1995 10.2492 10.9325C10.5161 10.6656 10.5161 10.2327 10.2492 9.96571Z" fill="#036C5F"/>
<path d="M17.5 1.09375C17.1225 1.09375 16.8164 1.39986 16.8164 1.77734V7.24609C16.8164 7.62357 17.1225 7.92969 17.5 7.92969C17.8775 7.92969 18.1836 7.62357 18.1836 7.24609V1.77734C18.1836 1.39986 17.8775 1.09375 17.5 1.09375Z" fill="#036C5F"/>
</svg>
