<svg width="50" height="50" viewBox="0 0 50 50" fill="none" xmlns="http://www.w3.org/2000/svg">
<g clip-path="url(#clip0_207_2499)">
<path d="M0.975564 18.63C1.37195 18.63 1.73699 18.3805 1.88279 18.0125C2.03279 17.6341 1.92625 17.188 1.61941 16.9194C1.30808 16.647 0.845779 16.6022 0.487478 16.8084C0.128982 17.0147 -0.0626196 17.4394 0.0184351 17.8448C0.108474 18.2948 0.516091 18.63 0.975564 18.63Z" fill="#036C5F"/>
<path d="M40.1146 18.5828C40.237 16.9153 40.0466 15.3371 39.5473 13.8861C38.2831 10.2126 35.6789 7.50316 32.4027 6.45245C27.8494 4.99236 23.9553 7.19485 21.4222 8.97858C20.6162 9.54598 19.5332 9.54598 18.7273 8.97858C16.1941 7.19485 12.2999 4.99246 7.74679 6.45245C4.77749 7.40462 2.38086 9.68231 0.998209 12.8658C0.783361 13.3604 1.01022 13.9356 1.50496 14.1506C1.9994 14.3654 2.57481 14.1386 2.78975 13.6438C3.94505 10.9837 5.91726 9.0903 8.34329 8.31236C11.9924 7.14212 15.2778 8.95729 17.4707 10.4831C18.2263 11.8456 19.4483 12.8589 20.9362 13.3505C21.574 13.5612 22.2294 13.6658 22.8822 13.6658C23.8346 13.6658 24.7811 13.443 25.6566 13.0023C26.1384 12.7598 26.3323 12.1726 26.0899 11.6909C25.8474 11.2091 25.2602 11.0152 24.7785 11.2577C23.7688 11.7658 22.6219 11.8505 21.5489 11.496C21.3516 11.4308 21.161 11.3522 20.9783 11.261C21.5316 11.1426 22.066 10.9142 22.5467 10.5757C24.7386 9.03229 28.0831 7.11868 31.8063 8.31245C34.4903 9.17312 36.6386 11.4363 37.7005 14.5217C38.1004 15.6839 38.2597 16.9562 38.1754 18.3103C37.9195 18.2946 37.6617 18.2866 37.402 18.2866C30.4556 18.2866 24.8042 23.9797 24.8042 30.9774C24.8042 34.4236 26.1747 37.5532 28.3956 39.8424C28.2104 40.2346 28.0273 40.6234 27.8473 41.0064C27.4292 41.8958 26.596 42.1336 25.9564 42.0596C25.316 41.9854 24.559 41.5636 24.3551 40.6017L22.0567 29.766C22.0531 29.749 22.049 29.7321 22.0445 29.7153C21.8017 28.8119 21.0102 28.205 20.0747 28.205C19.1393 28.205 18.3477 28.8119 18.105 29.7153C18.1005 29.7321 18.0964 29.749 18.0928 29.766L15.7944 40.6017C15.5904 41.5636 14.8335 41.9854 14.193 42.0596C13.5528 42.1335 12.72 41.8959 12.3021 41.0064C8.66009 33.258 6.36385 28.6686 5.47682 27.3654C4.20824 25.5016 3.26164 23.6219 2.66358 21.7785C2.49717 21.2655 1.94608 20.9845 1.43328 21.1509C0.920278 21.3173 0.639315 21.8682 0.805725 22.3812C1.46101 24.4008 2.48935 26.4475 3.86214 28.4644C4.66792 29.6484 7.0375 34.3976 10.5344 41.8373C11.1755 43.2014 12.4879 44.0264 13.9582 44.0264C14.1097 44.0264 14.2631 44.0176 14.4174 43.9997C16.0694 43.8086 17.3599 42.6339 17.705 41.007L19.9965 30.2036C20.0054 30.1772 20.0203 30.1581 20.0746 30.1581C20.129 30.1581 20.1438 30.1772 20.1528 30.2037L22.4444 41.0069C22.7894 42.6338 24.0799 43.8085 25.7318 43.9996C27.3837 44.1907 28.9077 43.3419 29.615 41.8372C29.7166 41.621 29.8192 41.403 29.9227 41.1836C32.0159 42.7443 34.6038 43.6682 37.4021 43.6682C44.3486 43.6682 49.9999 37.9751 49.9999 30.9773C49.9999 24.9174 45.7618 19.8359 40.1146 18.5828ZM37.4021 41.715C31.5327 41.715 26.7575 36.8981 26.7575 30.9773C26.7575 25.0566 31.5327 20.2397 37.4021 20.2397C43.2716 20.2397 48.0468 25.0566 48.0468 30.9773C48.0468 36.8981 43.2716 41.715 37.4021 41.715Z" fill="#036C5F"/>
<path d="M42.0687 27.6284H40.7318V26.2714C40.7318 25.0749 39.7626 24.1016 38.5714 24.1016H36.2319C35.0406 24.1016 34.0715 25.0749 34.0715 26.2714V27.6284H32.7345C31.5433 27.6284 30.5742 28.6018 30.5742 29.7983V32.1584C30.5742 33.3548 31.5434 34.3282 32.7345 34.3282H34.0715V35.6852C34.0715 36.8816 35.0406 37.8551 36.2319 37.8551H38.5714C39.7626 37.8551 40.7318 36.8817 40.7318 35.6852V34.3282H42.0687C43.2599 34.3282 44.2291 33.3549 44.2291 32.1584V29.7983C44.2291 28.6018 43.2599 27.6284 42.0687 27.6284ZM42.2759 32.1583C42.2759 32.2778 42.183 32.375 42.0687 32.375H39.7552C39.2158 32.375 38.7786 32.8122 38.7786 33.3516V35.6851C38.7786 35.8046 38.6856 35.9018 38.5714 35.9018H36.2319C36.1176 35.9018 36.0246 35.8046 36.0246 35.6851V33.3516C36.0246 32.8122 35.5874 32.375 35.048 32.375H32.7345C32.6203 32.375 32.5274 32.2778 32.5274 32.1583V29.7982C32.5274 29.6786 32.6204 29.5815 32.7345 29.5815H35.048C35.5874 29.5815 36.0246 29.1442 36.0246 28.6049V26.2714C36.0246 26.1519 36.1176 26.0547 36.2319 26.0547H38.5714C38.6856 26.0547 38.7786 26.1519 38.7786 26.2714V28.605C38.7786 29.1443 39.2158 29.5816 39.7552 29.5816H42.0687C42.183 29.5816 42.2759 29.6787 42.2759 29.7983V32.1583Z" fill="#036C5F"/>
</g>
<defs>
<clipPath id="clip0_207_2499">
<rect width="50" height="50" fill="white"/>
</clipPath>
</defs>
</svg>
