<svg width="47" height="47" viewBox="0 0 47 47" fill="none" xmlns="http://www.w3.org/2000/svg">
<g clip-path="url(#clip0_321_2356)">
<path d="M40.044 16.8073C39.5824 16.7835 39.2106 17.1124 39.179 17.5585C38.2908 30.1597 34.5328 45.3789 31.2242 45.3833C30.4378 45.0539 29.6716 40.7047 29.1651 37.8268C28.093 31.7403 26.984 25.4468 23.4967 25.4345C20.5758 25.4466 19.4381 31.1369 18.2327 37.1614C17.6407 40.1196 16.6501 45.0708 15.8017 45.3787C13.2709 45.3787 8.78857 33.4489 7.78209 16.9681C7.75538 16.5215 7.37447 16.18 6.92435 16.2087C6.47707 16.2359 6.13711 16.62 6.16465 17.0668C6.44217 21.6198 7.42195 29.0207 8.98265 35.2915C10.9429 43.1697 13.1738 46.9994 15.8017 46.9994C17.819 46.9994 18.6054 43.5595 19.8218 37.4794C20.6013 33.5829 21.9051 27.0621 23.4967 27.0552C25.623 27.0624 26.7944 33.7093 27.569 38.1075C28.5122 43.4623 29.1351 46.9994 31.1981 46.9994C37.4515 46.9994 40.3586 23.8669 40.795 17.6727C40.8267 17.2264 40.4904 16.839 40.044 16.8073Z" fill="#036C5F"/>
<path d="M31.1983 0C29.7328 0 28.3447 0.657613 27.0028 1.29327C25.7675 1.87871 24.601 2.43103 23.5001 2.43103C22.3993 2.43103 21.2328 1.87883 19.9974 1.29327C18.6554 0.657613 17.2673 0 15.8018 0C10.3558 0 6.36253 5.65381 6.09177 13.7487C6.07681 14.196 6.42722 14.5709 6.87461 14.5858C6.88316 14.5862 6.89289 14.5862 6.90215 14.5862C7.33649 14.5862 7.69675 14.241 7.71088 13.803C7.94745 6.7441 11.3505 1.62065 15.8018 1.62065C16.9026 1.62065 18.0691 2.17285 19.3045 2.75841C20.6464 3.39419 22.0345 4.05168 23.5 4.05168C24.9655 4.05168 26.3536 3.39407 27.6955 2.75841C28.9309 2.17297 30.0974 1.62065 31.1982 1.62065C35.6162 1.62065 38.9378 6.49079 39.2749 13.4639C39.2972 13.9108 39.6882 14.2434 40.1241 14.2341C40.5702 14.2123 40.9154 13.8325 40.8939 13.3853C40.5124 5.50425 36.5255 0 31.1983 0Z" fill="#036C5F"/>
<path d="M32.8189 8.94141H14.181C13.7479 8.94141 13.3975 9.29265 13.3975 9.72496V21.0697C13.3975 21.5024 13.7483 21.8533 14.181 21.8533H32.8189C33.2516 21.8533 33.6024 21.5021 33.6024 21.0697V9.72496C33.6024 9.29229 33.2516 8.94141 32.8189 8.94141ZM32.0357 20.2862H14.9646V10.5085H32.0357V20.2862Z" fill="#036C5F"/>
<path d="M14.1812 12.9922H1.21569C0.782539 12.9922 0.432129 13.3434 0.432129 13.7757V17.0172C0.432129 17.4498 0.783014 17.8007 1.21569 17.8007H14.1812C14.6139 17.8007 14.9648 17.4495 14.9648 17.0172V13.7757C14.9648 13.3431 14.6139 12.9922 14.1812 12.9922ZM13.398 16.2336H1.99924V14.5591H13.3979V16.2336H13.398Z" fill="#036C5F"/>
<path d="M45.7843 12.9922H32.8187C32.3856 12.9922 32.0352 13.3434 32.0352 13.7757V17.0172C32.0352 17.4498 32.386 17.8007 32.8187 17.8007H45.7843C46.2169 17.8007 46.5678 17.4495 46.5678 17.0172V13.7757C46.5678 13.3431 46.2169 12.9922 45.7843 12.9922ZM45.0011 16.2336H33.6024V14.5591H45.0011V16.2336Z" fill="#036C5F"/>
<path d="M20.6638 11.3438H18.2327C17.785 11.3438 17.4224 11.7067 17.4224 12.1541V18.6368C17.4224 19.0841 17.785 19.4472 18.2327 19.4472H20.6638C21.1115 19.4472 21.4742 19.0842 21.4742 18.6368V12.1541C21.4742 11.7069 21.1115 11.3438 20.6638 11.3438ZM19.8534 17.8266H19.043V12.9645H19.8534V17.8266Z" fill="#036C5F"/>
<path d="M27.9568 11.3438H25.5257C25.078 11.3438 24.7153 11.7067 24.7153 12.1541V18.6368C24.7153 19.0841 25.078 19.4472 25.5257 19.4472H27.9568C28.4045 19.4472 28.7671 19.0842 28.7671 18.6368V12.1541C28.7671 11.7069 28.4045 11.3438 27.9568 11.3438ZM27.1464 17.8266H26.336V12.9645H27.1464V17.8266Z" fill="#036C5F"/>
<path d="M32.8189 14.5859H27.9569C27.5091 14.5859 27.1465 14.9489 27.1465 15.3963C27.1465 15.8437 27.5091 16.2067 27.9569 16.2067H32.8189C33.2667 16.2067 33.6293 15.8437 33.6293 15.3963C33.6293 14.9489 33.2667 14.5859 32.8189 14.5859Z" fill="#036C5F"/>
<path d="M25.526 14.5859H20.6639C20.2162 14.5859 19.8535 14.9489 19.8535 15.3963C19.8535 15.8437 20.2162 16.2067 20.6639 16.2067H25.526C25.9737 16.2067 26.3363 15.8437 26.3363 15.3963C26.3363 14.9489 25.9737 14.5859 25.526 14.5859Z" fill="#036C5F"/>
<path d="M17.4224 14.5859H14.181C13.7332 14.5859 13.3706 14.9489 13.3706 15.3963C13.3706 15.8437 13.7332 16.2067 14.181 16.2067H17.4224C17.8702 16.2067 18.2328 15.8437 18.2328 15.3963C18.2328 14.9489 17.8702 14.5859 17.4224 14.5859Z" fill="#036C5F"/>
</g>
<defs>
<clipPath id="clip0_321_2356">
<rect width="47" height="47" fill="white"/>
</clipPath>
</defs>
</svg>
