<svg width="61" height="61" viewBox="0 0 61 61" fill="none" xmlns="http://www.w3.org/2000/svg">
<g clip-path="url(#clip0_437_85)">
<path d="M10.6041 20.4834L1.07282 37.6749C1.01039 37.7874 0.971387 37.9114 0.958168 38.0394C0.944948 38.1674 0.957785 38.2968 0.995903 38.4197C1.03402 38.5426 1.09663 38.6565 1.17996 38.7546C1.26329 38.8526 1.36561 38.9328 1.48076 38.9902L7.19951 41.8496C7.41884 41.9596 7.67213 41.9807 7.90665 41.9086C8.14117 41.8365 8.33887 41.6768 8.45859 41.4626L8.70831 41.0128C9.19325 42.4614 9.76979 43.8777 10.4344 45.2532C10.076 45.7569 9.86333 46.3496 9.81977 46.9663C9.77621 47.583 9.90344 48.1997 10.1875 48.7488C10.4715 49.2979 10.9014 49.758 11.4299 50.0788C11.9584 50.3995 12.565 50.5684 13.1832 50.5669H13.2947C13.3129 50.5669 13.3291 50.5621 13.3472 50.5612V50.5907V51.0673C13.3482 51.9454 13.6975 52.7873 14.3184 53.4082C14.9393 54.0291 15.7812 54.3784 16.6593 54.3794H17.0081C17.168 54.3735 17.3273 54.356 17.4847 54.327C17.5306 54.7734 17.6685 55.2054 17.8898 55.5958C18.111 55.9862 18.4108 56.3265 18.7703 56.5952C19.1297 56.8639 19.5409 57.0552 19.978 57.1569C20.415 57.2586 20.8684 57.2687 21.3096 57.1863C21.3296 57.3836 21.3691 57.5784 21.4278 57.7678L21.4754 57.906C21.6852 58.5093 22.0728 59.035 22.5871 59.4139C23.1014 59.7927 23.7183 60.007 24.3567 60.0286L25.0773 60.0505H25.1955C25.7741 60.051 26.3451 59.9188 26.8646 59.664C27.3841 59.4092 27.8383 59.0386 28.1921 58.5808L28.478 58.6828C30.201 59.3019 32.064 59.421 33.8518 59.0261C35.6396 58.6313 37.2792 57.7387 38.5812 56.4515C38.6364 56.4515 38.6917 56.4629 38.747 56.4629C39.7092 56.4584 40.657 56.2286 41.5145 55.792C42.372 55.3554 43.1154 54.724 43.6851 53.9486L44.5992 52.577C45.2271 52.3751 45.8091 52.0514 46.3118 51.6243C46.8146 51.1973 47.2282 50.6754 47.5291 50.0884L48.1963 49.0934C48.9579 48.7799 49.5982 48.2295 50.0225 47.5236C50.3597 46.9537 50.5455 46.3069 50.5621 45.645C50.5788 44.983 50.4258 44.3277 50.1178 43.7416L52.4625 41.3588L52.553 41.5132C52.6759 41.7221 52.8739 41.8764 53.1066 41.9446C53.3392 42.0128 53.5891 41.9897 53.8054 41.8801L59.5242 38.9845C59.6404 38.9257 59.7434 38.8436 59.8267 38.7434C59.91 38.6432 59.9719 38.527 60.0085 38.402C60.0451 38.2769 60.0557 38.1457 60.0396 38.0164C60.0235 37.887 59.9811 37.7624 59.9149 37.6501L50.3837 21.447C50.2608 21.238 50.0628 21.0837 49.8301 21.0156C49.5975 20.9474 49.3476 20.9705 49.1313 21.0801L43.4125 23.9757C43.2963 24.0345 43.1933 24.1165 43.11 24.2167C43.0267 24.3169 42.9648 24.4332 42.9282 24.5582C42.8916 24.6833 42.881 24.8145 42.8971 24.9438C42.9132 25.0731 42.9556 25.1978 43.0218 25.31L43.8567 26.7292C42.0601 27.1777 40.177 27.1449 38.3972 26.6339C36.3594 26.0535 34.2078 25.9981 32.1428 26.4728L23.7458 28.4105C21.619 27.9861 19.6659 26.9402 18.1338 25.4053L17.6448 24.9164L17.9889 24.2978C18.0512 24.1857 18.0903 24.0622 18.1037 23.9347C18.1172 23.8071 18.1048 23.6782 18.0672 23.5555C18.0297 23.4329 17.9678 23.3191 17.8852 23.221C17.8026 23.1228 17.7011 23.0424 17.5867 22.9844L11.8679 20.0898C11.6473 19.9789 11.3923 19.958 11.1565 20.0314C10.9208 20.1048 10.7227 20.2669 10.6041 20.4834V20.4834ZM13.1832 48.6578C12.9107 48.6574 12.6437 48.5812 12.412 48.4377C12.1803 48.2942 11.9931 48.089 11.8713 47.8452C11.7496 47.6014 11.6981 47.3285 11.7225 47.0571C11.747 46.7857 11.8465 46.5264 12.0099 46.3083L13.3815 44.4802C13.5185 44.2979 13.6959 44.1499 13.8998 44.0478C14.1038 43.9458 14.3286 43.8925 14.5567 43.8922H14.7359C15.125 43.8927 15.4981 44.0475 15.7732 44.3226C16.0484 44.5978 16.2032 44.9708 16.2037 45.36V45.7517C16.2022 46.1407 16.0478 46.5135 15.7738 46.7897L14.3327 48.2298C14.1967 48.3665 14.0349 48.4749 13.8568 48.5487C13.6786 48.6225 13.4876 48.6602 13.2947 48.6597L13.1832 48.6578ZM16.6564 52.4703C16.2837 52.4698 15.9264 52.3215 15.6629 52.058C15.3993 51.7944 15.2511 51.4371 15.2506 51.0644V50.5879C15.2516 50.2152 15.3995 49.858 15.6623 49.5938C15.668 49.588 15.6766 49.5833 15.6823 49.5775L17.1206 48.1345C17.1311 48.125 17.1377 48.1126 17.1482 48.1021L19.044 46.2063C19.1742 46.0756 19.329 45.972 19.4994 45.9015C19.6699 45.831 19.8527 45.795 20.0371 45.7956H20.2192C20.4863 45.7956 20.7478 45.8717 20.9732 46.0149C21.1985 46.1582 21.3785 46.3627 21.4919 46.6045C21.6052 46.8463 21.6474 47.1153 21.6135 47.3802C21.5795 47.6451 21.4708 47.8949 21.3 48.1002L18.2186 51.804L18.088 51.9613C17.9562 52.1198 17.7912 52.2474 17.6045 52.3348C17.4179 52.4223 17.2142 52.4676 17.0081 52.4674L16.6564 52.4703ZM20.7634 55.3297C20.4965 55.3297 20.235 55.2536 20.0097 55.1105C19.7843 54.9674 19.6044 54.763 19.4909 54.5214C19.3774 54.2797 19.3351 54.0108 19.3689 53.7459C19.4027 53.4811 19.5111 53.2314 19.6816 53.026L22.7669 49.324L22.8975 49.1677C23.0363 49.0035 23.2104 48.8727 23.4068 48.7851C23.6031 48.6974 23.8167 48.6552 24.0317 48.6616C24.2988 48.6616 24.5603 48.7377 24.7857 48.881C25.011 49.0242 25.191 49.2287 25.3044 49.4705C25.4177 49.7123 25.4599 49.9814 25.426 50.2463C25.392 50.5112 25.2833 50.7609 25.1125 50.9663L21.8957 54.8264C21.7568 54.9899 21.5829 55.12 21.3869 55.2071C21.1909 55.2942 20.9778 55.3361 20.7634 55.3297ZM25.1316 58.1423L24.411 58.1204C24.1589 58.1121 23.9152 58.0274 23.7122 57.8777C23.5092 57.7279 23.3564 57.5201 23.274 57.2817L23.2263 57.1435C23.1573 56.9415 23.1413 56.7251 23.1798 56.5152C23.2184 56.3052 23.3102 56.1087 23.4465 55.9444L26.5794 52.1843L26.7595 51.9689C26.8758 51.829 27.0215 51.7164 27.1863 51.6392C27.351 51.5619 27.5307 51.5219 27.7127 51.5219H28.3084C28.5336 51.521 28.7548 51.5814 28.9482 51.6967C29.1416 51.812 29.3 51.9779 29.4062 52.1764C29.5125 52.375 29.5626 52.5988 29.5512 52.8237C29.5398 53.0486 29.4673 53.2661 29.3416 53.453L26.7776 57.2979C26.5975 57.5668 26.3519 57.7854 26.0639 57.9332C25.776 58.0809 25.4551 58.1529 25.1316 58.1423V58.1423ZM49.1951 23.1893L57.7599 37.7455L53.7454 39.7775L45.1787 25.2214L49.1951 23.1893ZM32.5726 28.3362C34.3229 27.9334 36.1467 27.9803 37.8739 28.4725C40.1583 29.129 42.5831 29.1161 44.8603 28.4353L51.4626 39.6603L48.8616 42.3052C44.6944 38.9982 40.249 36.058 35.575 33.5174L36.3308 33.3954L36.0287 31.513L33.1693 31.9733C31.3358 32.2693 29.483 32.4302 27.6259 32.4547C27.4156 32.4574 27.212 32.5297 27.0471 32.6602C26.8821 32.7907 26.7649 32.9721 26.7138 33.1762L26.4822 34.1017C26.3275 34.7202 25.9705 35.2692 25.4679 35.6616C24.9654 36.0539 24.3462 36.2671 23.7086 36.2672H21.3915L23.5837 30.4083L32.5726 28.3362ZM16.786 26.7588C18.1852 28.1577 19.8885 29.2145 21.7633 29.8469L19.1231 36.8876C19.0694 37.0318 19.0514 37.1868 19.0706 37.3394C19.0899 37.492 19.1457 37.6377 19.2335 37.764C19.3212 37.8903 19.4382 37.9936 19.5745 38.0649C19.7108 38.1361 19.8624 38.1734 20.0162 38.1734H23.7114C24.7745 38.1745 25.8073 37.8197 26.6453 37.1655C27.4833 36.5113 28.0781 35.5955 28.3351 34.5639L28.3894 34.3447C29.7288 34.2954 31.0649 34.1786 32.3925 33.9949C37.8993 36.7878 43.1052 40.1381 47.9284 43.9932C48.2996 44.2922 48.5503 44.7152 48.6345 45.1843C48.7188 45.6534 48.6308 46.1371 48.3869 46.5466C48.2514 46.7722 48.0722 46.9683 47.8597 47.1235C47.6472 47.2787 47.4058 47.3898 47.1497 47.4502C46.8936 47.5106 46.628 47.5191 46.3685 47.4752C46.1091 47.4314 45.861 47.336 45.639 47.1947L37.6881 42.1346L36.6635 43.7435L44.6135 48.8017C44.9737 49.0284 45.3688 49.1943 45.783 49.2926C45.5849 49.6552 45.3172 49.9753 44.9954 50.2344C44.6736 50.4936 44.3038 50.6868 43.9073 50.8031C43.5107 50.9193 43.0952 50.9562 42.6843 50.9118C42.2735 50.8673 41.8755 50.7424 41.513 50.544L34.7706 46.8678L33.8575 48.5415L40.6037 52.2196C41.0995 52.4877 41.6364 52.6713 42.1925 52.7629L42.1344 52.8515C41.501 53.7048 40.5684 54.2871 39.5237 54.4815C38.479 54.676 37.3994 54.4682 36.5014 53.9L32.9177 51.6601L31.9064 53.2804L35.4902 55.5203C35.7307 55.6696 35.981 55.8027 36.2393 55.9187C35.243 56.6166 34.0975 57.0722 32.8941 57.2494C31.6906 57.4267 30.4624 57.3205 29.3072 56.9395L30.9276 54.5071C31.2451 54.0332 31.4278 53.4819 31.4561 52.9121C31.4844 52.3423 31.3571 51.7756 31.0881 51.2726C30.819 50.7696 30.4182 50.3492 29.9285 50.0565C29.4389 49.7638 28.8788 49.6098 28.3084 49.6109H27.7193C27.5851 49.6168 27.4514 49.6315 27.319 49.6548C27.2932 49.4379 27.2466 49.2241 27.1799 49.0162C26.9552 48.349 26.5247 47.7703 25.9502 47.3633C25.3758 46.9564 24.687 46.7422 23.9831 46.7515C23.8232 46.7574 23.6639 46.7749 23.5065 46.804C23.4808 46.5842 23.4339 46.3675 23.3664 46.1568C23.1468 45.4966 22.7246 44.9224 22.16 44.5158C21.5953 44.1093 20.9169 43.8911 20.2211 43.8922H20.0391C19.304 43.8945 18.5912 44.1443 18.0156 44.6013C17.8439 43.859 17.4263 43.1966 16.8305 42.7218C16.2347 42.247 15.4958 41.9876 14.734 41.9859H14.5548C14.0311 41.9872 13.5148 42.1098 13.0463 42.3439C12.5779 42.578 12.17 42.9175 11.8546 43.3355L11.7202 43.5147C11.0695 42.0547 10.5224 40.5508 10.0827 39.0141L9.9874 38.6976L16.6802 26.6558L16.786 26.7588ZM7.23573 39.7356L3.22212 37.7293L11.8269 22.2095L15.8424 24.2425L7.23573 39.7356Z" fill="white"/>
<path d="M20.353 15.5358L29.8843 23.6012C30.0564 23.7468 30.2745 23.8267 30.5 23.8267C30.7255 23.8267 30.9436 23.7468 31.1157 23.6012L40.647 15.5358C41.6495 14.6895 42.455 13.6344 43.0072 12.4442C43.5594 11.2541 43.8449 9.95768 43.8438 8.64569C43.8437 7.12424 43.3926 5.63696 42.5473 4.37193C41.702 3.10689 40.5006 2.12092 39.0949 1.53869C37.6893 0.956461 36.1426 0.804121 34.6503 1.10093C33.1581 1.39775 31.7874 2.13039 30.7116 3.2062L30.5 3.4178L30.2884 3.2062C29.2126 2.13039 27.8419 1.39775 26.3497 1.10093C24.8574 0.804121 23.3107 0.956461 21.9051 1.53869C20.4994 2.12092 19.298 3.10689 18.4527 4.37193C17.6075 5.63696 17.1563 7.12424 17.1563 8.64569C17.1551 9.95768 17.4406 11.2541 17.9928 12.4442C18.545 13.6344 19.3505 14.6895 20.353 15.5358V15.5358ZM24.8489 2.85927C25.6091 2.85709 26.3622 3.00575 27.0646 3.29664C27.767 3.58753 28.4046 4.01487 28.9407 4.55392L29.8261 5.43938C30.0049 5.61806 30.2473 5.71844 30.5 5.71844C30.7527 5.71844 30.9951 5.61806 31.1739 5.43938L32.0593 4.55392C32.8686 3.74462 33.8996 3.19347 35.0221 2.97017C36.1446 2.74688 37.3081 2.86147 38.3655 3.29945C39.4229 3.73744 40.3266 4.47914 40.9624 5.43077C41.5982 6.3824 41.9376 7.5012 41.9375 8.64569C41.9379 9.68023 41.7124 10.7024 41.2768 11.6407C40.8412 12.5791 40.206 13.4111 39.4155 14.0785L30.5 21.6263L21.5845 14.0823C20.7935 13.4144 20.1581 12.5819 19.7224 11.6428C19.2868 10.7038 19.0616 9.68087 19.0625 8.64569C19.0645 7.11165 19.6748 5.64103 20.7595 4.5563C21.8443 3.47157 23.3149 2.86128 24.8489 2.85927V2.85927Z" fill="white"/>
</g>
<defs>
<clipPath id="clip0_437_85">
<rect width="61" height="61" fill="white"/>
</clipPath>
</defs>
</svg>
