<svg width="61" height="61" viewBox="0 0 61 61" fill="none" xmlns="http://www.w3.org/2000/svg">
<path d="M36.2188 12.3906H33.3594V9.53125C33.3594 9.27847 33.259 9.03603 33.0802 8.85729C32.9015 8.67854 32.659 8.57812 32.4062 8.57812H28.5938C28.341 8.57812 28.0985 8.67854 27.9198 8.85729C27.741 9.03603 27.6406 9.27847 27.6406 9.53125V12.3906H24.7812C24.5285 12.3906 24.286 12.491 24.1073 12.6698C23.9285 12.8485 23.8281 13.091 23.8281 13.3438V17.1562C23.8281 17.409 23.9285 17.6515 24.1073 17.8302C24.286 18.009 24.5285 18.1094 24.7812 18.1094H27.6406V20.9688C27.6406 21.2215 27.741 21.464 27.9198 21.6427C28.0985 21.8215 28.341 21.9219 28.5938 21.9219H32.4062C32.659 21.9219 32.9015 21.8215 33.0802 21.6427C33.259 21.464 33.3594 21.2215 33.3594 20.9688V18.1094H36.2188C36.4715 18.1094 36.714 18.009 36.8927 17.8302C37.0715 17.6515 37.1719 17.409 37.1719 17.1562V13.3438C37.1719 13.091 37.0715 12.8485 36.8927 12.6698C36.714 12.491 36.4715 12.3906 36.2188 12.3906ZM35.2656 16.2031H32.4062C32.1535 16.2031 31.911 16.3035 31.7323 16.4823C31.5535 16.661 31.4531 16.9035 31.4531 17.1562V20.0156H29.5469V17.1562C29.5469 16.9035 29.4465 16.661 29.2677 16.4823C29.089 16.3035 28.8465 16.2031 28.5938 16.2031H25.7344V14.2969H28.5938C28.8465 14.2969 29.089 14.1965 29.2677 14.0177C29.4465 13.839 29.5469 13.5965 29.5469 13.3438V10.4844H31.4531V13.3438C31.4531 13.5965 31.5535 13.839 31.7323 14.0177C31.911 14.1965 32.1535 14.2969 32.4062 14.2969H35.2656V16.2031Z" fill="#036C5F"/>
<path d="M56.9302 17.4956C56.9494 17.3279 56.959 17.1593 56.9587 16.9905C56.9541 16.1168 56.6511 15.271 56.0998 14.5932C55.5485 13.9154 54.7822 13.4463 53.9278 13.2638C52.9614 13.0798 51.9611 13.2698 51.1295 13.7954C50.2978 14.3209 49.6968 15.1427 49.4481 16.0945L45.2544 28.1611C45.1922 28.1858 45.1317 28.2144 45.0733 28.2469L36.6477 33.1841C35.3584 33.9414 34.289 35.022 33.5451 36.3192C32.8013 37.6163 32.4087 39.0851 32.4062 40.5803V49.5588C32.1535 49.5588 31.911 49.6592 31.7323 49.8379C31.5535 50.0167 31.4531 50.2591 31.4531 50.5119V58.1369C31.4531 58.3897 31.5535 58.6321 31.7323 58.8108C31.911 58.9896 32.1535 59.09 32.4062 59.09H45.75C46.0028 59.09 46.2452 58.9896 46.424 58.8108C46.6027 58.6321 46.7031 58.3897 46.7031 58.1369V50.5119C46.7031 50.2591 46.6027 50.0167 46.424 49.8379C46.2452 49.6592 46.0028 49.5588 45.75 49.5588V47.4619C45.7518 47.0593 45.8375 46.6615 46.0016 46.2939C46.1657 45.9263 46.4046 45.597 46.7031 45.3269L53.1462 39.5986C53.851 38.9819 54.3555 38.1688 54.595 37.2634L58.7316 21.7942C58.8199 21.4712 58.8647 21.1379 58.865 20.803C58.8613 20.1304 58.6805 19.4706 58.3408 18.89C58.0012 18.3094 57.5146 17.8285 56.9302 17.4956V17.4956ZM51.2686 16.6569C51.3856 16.164 51.6841 15.7333 52.1045 15.4506C52.5249 15.168 53.0364 15.0542 53.537 15.1319C53.9642 15.2214 54.3478 15.4547 54.6236 15.793C54.8995 16.1313 55.0509 16.554 55.0525 16.9905V17.0095C54.2011 17.0253 53.3782 17.3188 52.7089 17.8453C52.0397 18.3717 51.5607 19.1024 51.3448 19.9261L48.6856 28.1325C48.283 27.9415 47.8514 27.8191 47.4084 27.7703L51.2686 16.6569ZM44.7969 57.1838H33.3594V51.465H44.7969V57.1838ZM56.892 21.2986L52.7459 36.7774C52.6025 37.3152 52.3042 37.7991 51.8881 38.1689L45.4355 43.8972C44.9362 44.3475 44.5366 44.8972 44.2625 45.5111C43.9883 46.1251 43.8457 46.7895 43.8438 47.4619V49.5588H34.3125V40.5803C34.3172 39.4175 34.6236 38.2757 35.2016 37.2666C35.7796 36.2576 36.6096 35.4158 37.6103 34.8235L46.0264 29.8958C46.2434 29.7694 46.4832 29.6871 46.7322 29.6536C46.9811 29.6202 47.2341 29.6362 47.4768 29.7009C47.7195 29.7655 47.947 29.8775 48.1463 30.0304C48.3455 30.1832 48.5126 30.3739 48.638 30.5916C48.8855 31.032 48.9538 31.5509 48.8286 32.0403C48.7624 32.282 48.6492 32.5083 48.4954 32.7062C48.3417 32.9041 48.1505 33.0697 47.9327 33.1936L42.4713 36.3485C42.2638 36.4803 42.1153 36.6873 42.0568 36.9261C41.9983 37.1648 42.0344 37.417 42.1574 37.6298C42.2804 37.8426 42.4809 37.9997 42.717 38.0682C42.9531 38.1367 43.2065 38.1113 43.4244 37.9974L48.8858 34.8425C49.3223 34.5948 49.7049 34.2623 50.011 33.8646C50.3171 33.4668 50.5405 33.0118 50.6681 32.5264C50.9276 31.5512 50.7905 30.5129 50.2869 29.6385L50.2297 29.5527L53.1748 20.4694C53.2918 19.9765 53.5903 19.5458 54.0107 19.2631C54.4312 18.9805 54.9427 18.8667 55.4433 18.9444C55.8705 19.0339 56.2541 19.2672 56.5299 19.6055C56.8057 19.9438 56.9571 20.3665 56.9587 20.803C56.962 20.9706 56.9395 21.1378 56.892 21.2986V21.2986Z" fill="#036C5F"/>
<path d="M28.5935 49.5594V40.581C28.591 39.0857 28.1985 37.6169 27.4547 36.3198C26.7108 35.0227 25.6414 33.942 24.3521 33.1847L15.9265 28.238C15.8693 28.2094 15.8026 28.1903 15.7454 28.1617L11.5802 16.1619C11.3382 15.1962 10.7372 14.359 9.89967 13.8207C9.06214 13.2824 8.05097 13.0835 7.07195 13.2644C6.21756 13.4469 5.45122 13.916 4.89996 14.5938C4.3487 15.2716 4.04564 16.1175 4.04102 16.9911C4.04077 17.1599 4.05032 17.3286 4.06961 17.4963C3.48512 17.8291 2.99859 18.3101 2.65894 18.8906C2.31929 19.4712 2.13851 20.131 2.13477 20.8036C2.13662 21.1378 2.17821 21.4705 2.25867 21.7949L6.40477 37.2546C6.6417 38.1637 7.14645 38.9806 7.85352 39.5992L14.2871 45.3275C14.5886 45.5957 14.8302 45.9245 14.9961 46.2924C15.1619 46.6603 15.2484 47.059 15.2498 47.4625V49.5594C14.997 49.5594 14.7546 49.6598 14.5758 49.8386C14.3971 50.0173 14.2966 50.2597 14.2966 50.5125V58.1375C14.2966 58.3903 14.3971 58.6327 14.5758 58.8115C14.7546 58.9902 14.997 59.0906 15.2498 59.0906H28.5935C28.8463 59.0906 29.0887 58.9902 29.2675 58.8115C29.4462 58.6327 29.5466 58.3903 29.5466 58.1375V50.5125C29.5466 50.2597 29.4462 50.0173 29.2675 49.8386C29.0887 49.6598 28.8463 49.5594 28.5935 49.5594ZM5.94727 16.9911C5.94844 16.556 6.09847 16.1343 6.37242 15.7962C6.64637 15.4581 7.02775 15.2239 7.4532 15.1325C7.96757 15.0579 8.49114 15.1804 8.91892 15.4756C9.3467 15.7708 9.64706 16.2169 9.75977 16.7242L13.5913 27.771C13.1484 27.8198 12.7167 27.9422 12.3141 28.1331L9.67398 19.9744C9.45912 19.1425 8.97919 18.4033 8.3068 17.8685C7.63441 17.3337 6.80613 17.0324 5.94727 17.0102V16.9911ZM15.5548 43.8978L9.11164 38.1696C8.69327 37.7978 8.39471 37.3101 8.25383 36.7685L4.0982 21.2992C4.05875 21.137 4.03954 20.9705 4.04102 20.8036C4.04219 20.3685 4.19222 19.9468 4.46617 19.6087C4.74012 19.2706 5.1215 19.0364 5.54695 18.945C6.0577 18.8684 6.57852 18.9879 7.00468 19.2797C7.43083 19.5715 7.73071 20.0138 7.84398 20.5177L10.7701 29.5533L10.7129 29.6391C10.2093 30.5136 10.0722 31.5518 10.3316 32.5271C10.4593 33.0125 10.6827 33.4674 10.9888 33.8652C11.2949 34.263 11.6774 34.5955 12.114 34.8431L17.5754 37.998C17.7932 38.1119 18.0467 38.1373 18.2827 38.0688C18.5188 38.0003 18.7193 37.8433 18.8424 37.6304C18.9654 37.4176 19.0014 37.1655 18.9429 36.9267C18.8845 36.6879 18.736 36.481 18.5285 36.3491L13.0671 33.1942C12.8493 33.0703 12.6581 32.9047 12.5043 32.7068C12.3506 32.5089 12.2374 32.2826 12.1712 32.041C12.046 31.5515 12.1142 31.0326 12.3618 30.5922C12.4863 30.375 12.6524 30.1845 12.8506 30.0315C13.0488 29.8786 13.2751 29.7661 13.5167 29.7006C13.7584 29.6351 14.0105 29.6179 14.2588 29.6498C14.5071 29.6818 14.7467 29.7623 14.9638 29.8869L23.3895 34.8241C24.3902 35.4164 25.2201 36.2582 25.7982 37.2673C26.3762 38.2763 26.6825 39.4181 26.6873 40.581V49.5594H17.156V47.4625C17.1544 46.7892 17.011 46.1238 16.7351 45.5096C16.4592 44.8954 16.057 44.3463 15.5548 43.8978ZM27.6404 57.1844H16.2029V51.4656H27.6404V57.1844Z" fill="#036C5F"/>
<path d="M43.983 4.88961C43.0982 4.00323 42.0473 3.30005 40.8904 2.8203C39.7335 2.34056 38.4933 2.09366 37.2409 2.09375C35.9885 2.09384 34.7484 2.34091 33.5915 2.82082C32.4347 3.30073 31.3839 4.00406 30.4992 4.89056V4.89056C29.6146 4.00404 28.5638 3.3007 27.407 2.82081C26.2502 2.34093 25.0101 2.09391 23.7577 2.09391C22.5053 2.09391 21.2652 2.34093 20.1085 2.82081C18.9517 3.3007 17.9009 4.00404 17.0163 4.89056C15.2323 6.67832 14.2305 9.10073 14.2305 11.6263C14.2305 14.1519 15.2323 16.5743 17.0163 18.362L29.8263 31.172C30.005 31.3507 30.2474 31.4511 30.5001 31.4511C30.7529 31.4511 30.9952 31.3507 31.174 31.172L43.984 18.362C45.7678 16.574 46.7696 14.1513 46.7694 11.6256C46.7692 9.0999 45.7671 6.6774 43.983 4.88961V4.88961ZM30.4992 29.1505L18.363 17.0143C17.2976 15.9474 16.5723 14.5885 16.279 13.1095C15.9857 11.6305 16.1375 10.0977 16.7152 8.70492C17.2929 7.31215 18.2706 6.12192 19.5246 5.2847C20.7786 4.44748 22.2528 4.00086 23.7606 4.00129C24.7622 3.99785 25.7545 4.19388 26.6795 4.57795C27.6046 4.96202 28.4439 5.52643 29.1486 6.23828L29.8253 6.915C30.004 7.09368 30.2464 7.19406 30.4992 7.19406C30.7519 7.19406 30.9943 7.09368 31.173 6.915L31.8517 6.23637C32.5593 5.52749 33.3997 4.9651 34.3249 4.58138C35.2501 4.19766 36.2419 4.00015 37.2435 4.00015C38.2451 4.00015 39.2369 4.19766 40.1621 4.58138C41.0873 4.9651 41.9277 5.52749 42.6353 6.23637C44.063 7.66604 44.865 9.60391 44.865 11.6244C44.865 13.6449 44.063 15.5827 42.6353 17.0124L30.4992 29.1505Z" fill="#036C5F"/>
</svg>
