<svg width="61" height="61" viewBox="0 0 61 61" fill="none" xmlns="http://www.w3.org/2000/svg">
<path d="M41.6535 27.3639L48.6828 20.4242C49.7885 19.331 50.4375 17.9585 50.5071 16.5593C50.5815 15.0848 50.1745 13.6571 49.33 12.4304C48.2053 10.7977 46.0818 10.0866 44.1631 10.7062C42.8602 11.1275 41.8137 12.3703 40.9844 13.5465C40.1552 12.3703 39.1087 11.1275 37.8058 10.7071C35.8862 10.0857 33.7636 10.7986 32.6389 12.4323C31.7935 13.658 31.3874 15.0858 31.4618 16.5603C31.5314 17.9604 32.1804 19.3329 33.2861 20.4261H33.287L40.3154 27.3659C40.5003 27.5479 40.7424 27.6394 40.9844 27.6394C41.2265 27.6394 41.4686 27.5479 41.6535 27.3639ZM34.6252 19.0679C33.8589 18.3112 33.4119 17.3857 33.3661 16.4631C33.3127 15.4108 33.6044 14.39 34.2087 13.5122C34.8606 12.5657 36.0978 12.1578 37.2196 12.52C38.248 12.8526 39.3222 14.4682 40.0323 15.5385L40.1924 15.7778C40.546 16.3077 41.4229 16.3077 41.7765 15.7778L41.9366 15.5385C42.6467 14.4691 43.7209 12.8526 44.7493 12.52C45.8702 12.1578 47.1092 12.5657 47.7602 13.5112C48.3645 14.3891 48.6552 15.4099 48.6028 16.4631C48.557 17.3857 48.1091 18.3102 47.3437 19.067L40.9844 25.3471L34.6252 19.0679Z" fill="white"/>
<path d="M3.8125 58.1406H9.53125C11.1077 58.1406 12.3906 56.8577 12.3906 55.2812V54.0012L18.2371 51.4659L44.3918 51.463C46.5154 51.6222 48.4798 50.997 50.0715 49.6569L58.7144 42.0881C60.3109 40.6889 60.4948 38.3299 59.1347 36.7182C58.4275 35.8794 57.4201 35.3686 56.3001 35.279C55.1688 35.1865 54.0813 35.5373 53.2349 36.2645L44.9408 43.4158C44.7559 43.574 44.5357 43.677 44.3041 43.7484C44.6091 43.1956 44.7969 42.5685 44.7969 41.8917C44.7969 39.7796 43.1222 38.125 40.9844 38.125H32.8904C28.6547 33.9932 22.1697 33.1259 17.019 36.0348L16.7607 36.1797L12.3906 37.7285V37.1719C12.3906 35.5954 11.1077 34.3125 9.53125 34.3125H3.8125C2.23603 34.3125 0.953125 35.5954 0.953125 37.1719V55.2812C0.953125 56.8577 2.23603 58.1406 3.8125 58.1406V58.1406ZM17.4746 37.9487C17.527 37.9306 17.5756 37.9077 17.6242 37.881L17.955 37.6951C22.3603 35.2084 27.9037 35.9462 31.536 39.466C31.6838 39.7996 32.0183 40.0312 32.4062 40.0312H40.9844C42.0719 40.0312 42.8906 40.8309 42.8906 41.8917C42.8906 42.9678 42.0357 43.8438 40.9844 43.8438L30.5 43.8418V45.7481L40.9844 45.75L41.3513 45.7538C41.8984 45.7605 42.8477 45.7719 43.8657 45.75C44.7168 45.7309 45.5403 45.4155 46.1865 44.8617L54.4806 37.7104C54.9372 37.3177 55.5386 37.1271 56.1495 37.1785C56.7595 37.2281 57.3028 37.5007 57.6784 37.9468C58.3741 38.7712 58.2798 39.935 57.4591 40.6546L48.8305 48.211C47.641 49.2118 46.156 49.6778 44.4604 49.5596H18.0398C17.9092 49.5596 17.7805 49.5863 17.6614 49.6378L12.3906 51.9224V39.7501L17.4746 37.9487ZM2.85938 37.1719C2.85938 36.6458 3.28638 36.2188 3.8125 36.2188H9.53125C10.0574 36.2188 10.4844 36.6458 10.4844 37.1719V55.2812C10.4844 55.8074 10.0574 56.2344 9.53125 56.2344H3.8125C3.28638 56.2344 2.85938 55.8074 2.85938 55.2812V37.1719Z" fill="white"/>
<path d="M56.2344 18.1094C56.2344 9.70091 49.3928 2.85938 40.9844 2.85938C32.5759 2.85938 25.7344 9.70091 25.7344 18.1094C25.7344 26.5178 32.5759 33.3594 40.9844 33.3594C49.3928 33.3594 56.2344 26.5178 56.2344 18.1094ZM27.6406 18.1094C27.6406 10.7513 33.6263 4.76562 40.9844 4.76562C48.3425 4.76562 54.3281 10.7513 54.3281 18.1094C54.3281 25.4675 48.3425 31.4531 40.9844 31.4531C33.6263 31.4531 27.6406 25.4675 27.6406 18.1094Z" fill="white"/>
</svg>
