<svg width="61" height="61" viewBox="0 0 61 61" fill="none" xmlns="http://www.w3.org/2000/svg">
<g clip-path="url(#clip0_437_74)">
<path d="M60.9405 43.9878L54.2686 26.5552C54.1853 26.3377 54.0204 26.1613 53.809 26.0636C53.5976 25.9659 53.3564 25.9546 53.1368 26.0322L46.1075 28.5401C45.9946 28.5806 45.891 28.6433 45.8028 28.7246C45.7146 28.8058 45.6436 28.904 45.5941 29.0132C45.5445 29.1224 45.5174 29.2405 45.5143 29.3604C45.5112 29.4803 45.5323 29.5996 45.5761 29.7112L46.1873 31.26L41.3907 33.538L33.5179 32.0595C32.7512 31.9161 31.9631 31.9325 31.203 32.1076C30.4428 32.2826 29.727 32.6126 29.1002 33.0769L27.6931 34.1206L26.7614 33.4498C26.0582 32.9463 25.2496 32.6095 24.3968 32.465C23.5441 32.3205 22.6696 32.3721 21.8397 32.6159L18.8183 33.5154L14.8605 31.1492L15.4288 29.7124C15.4727 29.6008 15.4937 29.4815 15.4906 29.3616C15.4875 29.2417 15.4604 29.1236 15.4109 29.0144C15.3613 28.9052 15.2903 28.807 15.2021 28.7258C15.1139 28.6445 15.0103 28.5817 14.8974 28.5413L7.86336 26.0322C7.64345 25.9539 7.40165 25.9648 7.18969 26.0626C6.97773 26.1603 6.81243 26.3371 6.72914 26.5552L0.0596474 43.9878C-0.0230482 44.2025 -0.0196425 44.4408 0.0691538 44.653C0.15795 44.8653 0.325276 45.035 0.53621 45.1268L7.20809 48.0017C7.31799 48.0492 7.43632 48.0741 7.55604 48.0749C7.67576 48.0758 7.79443 48.0526 7.90501 48.0067C8.01558 47.9608 8.11581 47.8931 8.19973 47.8078C8.28365 47.7224 8.34956 47.621 8.39353 47.5096L9.06549 45.8095L14.596 48.9262C14.2233 49.4673 14.0517 50.1217 14.1109 50.776C14.1701 51.4304 14.4563 52.0434 14.9201 52.5088C15.1809 52.7698 15.4907 52.9766 15.8318 53.1175C16.1728 53.2584 16.5383 53.3305 16.9073 53.3297H16.9776C17.0402 54.0287 17.3623 54.6789 17.8806 55.1522C18.3988 55.6255 19.0756 55.8874 19.7774 55.8864H19.8501C19.9067 56.5432 20.1937 57.1589 20.6603 57.6247C20.9211 57.8857 21.2309 58.0925 21.572 58.2334C21.913 58.3743 22.2785 58.4464 22.6475 58.4456H22.7178C22.7651 58.9781 22.9633 59.486 23.2892 59.9098C23.6151 60.3336 24.0551 60.6555 24.5577 60.8379C25.0602 61.0203 25.6043 61.0556 26.1261 60.9395C26.648 60.8234 27.1259 60.5608 27.5037 60.1826L28.5652 59.1223L30.0021 60.1945C30.6108 60.6482 31.3629 60.8667 32.1199 60.8098C32.8769 60.7529 33.5879 60.4244 34.122 59.8848L34.2232 59.7823C34.6743 59.3219 34.9736 58.7344 35.081 58.0989C35.6186 58.2506 36.1869 58.2566 36.7275 58.1161C37.2681 57.9756 37.7616 57.6937 38.1572 57.2994L38.2311 57.2256C38.7324 56.7252 39.0491 56.0695 39.1294 55.3658C39.6711 55.5271 40.2465 55.5387 40.7942 55.3992C41.342 55.2597 41.8417 54.9743 42.2402 54.5735L42.2902 54.5234C42.779 54.039 43.0926 53.4056 43.1814 52.7232C43.6637 52.8383 44.1664 52.8375 44.6484 52.7209C45.1303 52.6044 45.5778 52.3753 45.9542 52.0526C46.3307 51.7299 46.6253 51.3226 46.8141 50.8641C47.0029 50.4056 47.0804 49.9089 47.0404 49.4147C47.0248 49.223 46.9917 49.0332 46.9415 48.8476L52.1348 46.3051L52.6114 47.5061C52.6551 47.6176 52.7208 47.7192 52.8047 47.8048C52.8886 47.8904 52.9889 47.9581 53.0995 48.0041C53.2102 48.05 53.329 48.0732 53.4488 48.0721C53.5686 48.0711 53.687 48.0459 53.7968 47.9981L60.4687 45.1232C60.6779 45.0306 60.8436 44.8611 60.9314 44.6498C61.0192 44.4385 61.0224 44.2015 60.9405 43.9878V43.9878ZM7.06869 45.9965L2.035 43.8258L8.08377 28.0099L9.56707 28.5377L6.70769 36.6655C6.6287 36.8892 6.64181 37.1351 6.74414 37.3491C6.84647 37.5632 7.02964 37.7278 7.25336 37.8068C7.47707 37.8858 7.72301 37.8727 7.93705 37.7704C8.1511 37.668 8.31573 37.4849 8.39473 37.2612L11.247 29.1417L13.4213 29.9173L7.06869 45.9965ZM17.6329 51.2447C17.44 51.4299 17.1822 51.5322 16.9148 51.5298C16.6473 51.5273 16.3915 51.4203 16.202 51.2316C16.0125 51.0428 15.9044 50.7874 15.9008 50.52C15.8973 50.2526 15.9985 49.9944 16.1829 49.8007L18.0892 47.8945C18.2326 47.7516 18.415 47.6544 18.6135 47.6152C18.812 47.5759 19.0177 47.5963 19.2047 47.6738C19.3916 47.7512 19.5514 47.8823 19.664 48.0505C19.7765 48.2187 19.8367 48.4165 19.837 48.6188C19.8375 48.7533 19.8111 48.8865 19.7596 49.0106C19.7081 49.1348 19.6323 49.2474 19.5368 49.342L17.6329 51.2447ZM20.6614 53.6466C20.6078 53.699 20.5602 53.755 20.5125 53.811L20.503 53.8003C20.4088 53.8989 20.2959 53.9776 20.1709 54.032C20.0458 54.0863 19.9112 54.1152 19.7749 54.1168C19.6385 54.1184 19.5032 54.0927 19.377 54.0413C19.2507 53.9899 19.136 53.9137 19.0395 53.8174C18.9431 53.721 18.8668 53.6063 18.8153 53.4801C18.7638 53.3539 18.738 53.2186 18.7395 53.0823C18.741 52.946 18.7697 52.8113 18.824 52.6862C18.8782 52.5611 18.9569 52.4481 19.0554 52.3539L20.8044 50.6061C20.8568 50.5537 20.9069 50.4989 20.9545 50.4429L20.9629 50.4512C21.1561 50.2663 21.414 50.1645 21.6815 50.1674C21.9489 50.1703 22.2045 50.2777 22.3937 50.4668C22.5829 50.6558 22.6905 50.9114 22.6937 51.1788C22.6968 51.4462 22.5951 51.7042 22.4104 51.8976L20.6614 53.6466ZM23.3683 56.3534C23.1735 56.5283 22.9192 56.6219 22.6575 56.615C22.3958 56.6081 22.1468 56.5011 21.9615 56.3162C21.7763 56.1313 21.6689 55.8824 21.6616 55.6207C21.6542 55.359 21.7474 55.1045 21.922 54.9095L23.8282 53.0032C23.9207 52.8985 24.0336 52.8138 24.16 52.7544C24.2865 52.6949 24.4238 52.662 24.5634 52.6577C24.703 52.6533 24.8421 52.6776 24.972 52.729C25.1019 52.7804 25.2199 52.8579 25.3187 52.9566C25.4176 53.0554 25.4951 53.1733 25.5467 53.3032C25.5982 53.433 25.6226 53.5721 25.6183 53.7117C25.6141 53.8514 25.5813 53.9886 25.5219 54.1151C25.4626 54.2416 25.378 54.3546 25.2734 54.4472L23.3683 56.3534ZM28.1435 57.0039L26.2372 58.9102C26.044 59.0951 25.7861 59.1969 25.5186 59.194C25.2512 59.1911 24.9956 59.0837 24.8064 58.8946C24.6172 58.7056 24.5096 58.4501 24.5064 58.1826C24.5033 57.9152 24.605 57.6572 24.7897 57.4638L26.5387 55.716C26.5911 55.6636 26.6411 55.6088 26.6888 55.5528L26.6971 55.5612C26.8904 55.3763 27.1483 55.2744 27.4157 55.2773C27.6831 55.2802 27.9388 55.3877 28.1279 55.5767C28.3171 55.7657 28.4248 56.0213 28.4279 56.2887C28.431 56.5561 28.3294 56.8141 28.1447 57.0075L28.1435 57.0039ZM44.8661 50.618C44.6286 50.8582 44.3093 51 43.9719 51.0152C43.6345 51.0305 43.3037 50.918 43.0456 50.7002L42.3486 50.12C42.3 50.0492 42.2414 49.9858 42.1747 49.9318L40.5675 48.6403C40.3822 48.5011 40.1502 48.4393 39.9203 48.4679C39.6903 48.4966 39.4805 48.6134 39.3351 48.7938C39.1897 48.9741 39.12 49.2039 39.1407 49.4347C39.1615 49.6654 39.2711 49.8791 39.4463 50.0306L40.8331 51.1494C40.8717 51.2026 40.9156 51.2517 40.9642 51.2959C41.102 51.4179 41.2133 51.5668 41.2914 51.7334C41.3695 51.9 41.4126 52.0808 41.4182 52.2648C41.4238 52.4487 41.3917 52.6318 41.3238 52.8029C41.256 52.9739 41.1539 53.1293 41.0238 53.2594L40.9737 53.3094C40.7478 53.5363 40.4483 53.6754 40.1291 53.7016C39.8099 53.7278 39.4919 53.6394 39.2319 53.4524L37.8511 52.4635L37.8368 52.4528L37.3149 52.0799C37.1222 51.9419 36.8825 51.8862 36.6487 51.925C36.4149 51.9638 36.206 52.0938 36.0681 52.2866C35.9302 52.4793 35.8745 52.719 35.9132 52.9528C35.952 53.1866 36.0821 53.3955 36.2748 53.5334L36.8062 53.9134C36.9639 54.0283 37.0949 54.1761 37.19 54.3464C37.2851 54.5168 37.3422 54.7058 37.3572 54.9003C37.3723 55.0949 37.345 55.2904 37.2772 55.4734C37.2095 55.6564 37.1028 55.8225 36.9647 55.9603L36.8908 56.0341C36.6477 56.277 36.3212 56.4182 35.9778 56.429C35.6344 56.4399 35.2997 56.3195 35.0417 56.0925L33.5525 54.782C33.4669 54.6933 33.364 54.6232 33.25 54.5762C33.1361 54.5292 33.0137 54.5063 32.8905 54.5088C32.7673 54.5114 32.646 54.5394 32.5341 54.5912C32.4223 54.6429 32.3223 54.7172 32.2406 54.8094C32.1588 54.9016 32.097 55.0098 32.0591 55.127C32.0211 55.2443 32.0078 55.3681 32.02 55.4907C32.0323 55.6134 32.0697 55.7321 32.13 55.8396C32.1904 55.9471 32.2723 56.0409 32.3706 56.1152L32.8769 56.5631C33.0149 56.6844 33.1266 56.8326 33.2053 56.9986C33.284 57.1646 33.328 57.3449 33.3346 57.5285C33.3412 57.7121 33.3102 57.8951 33.2436 58.0663C33.177 58.2375 33.0762 58.3933 32.9472 58.5242L32.846 58.6266C32.616 58.859 32.3099 59.0005 31.9839 59.025C31.6579 59.0495 31.3341 58.9554 31.072 58.7601L29.7852 57.7998C30.0572 57.3751 30.2098 56.885 30.2272 56.381C30.2445 55.877 30.1259 55.3775 29.8838 54.9351C29.6417 54.4927 29.285 54.1236 28.8511 53.8665C28.4173 53.6094 27.9222 53.4737 27.4179 53.4738H27.3476C27.2848 52.775 26.9628 52.1249 26.4449 51.6515C25.927 51.1782 25.2507 50.9157 24.549 50.9159H24.4763C24.4115 50.2068 24.079 49.549 23.5466 49.0763C23.0141 48.6036 22.3216 48.3514 21.6098 48.371C21.5537 47.7141 21.2662 47.0985 20.7985 46.6339C20.2711 46.1075 19.5564 45.8118 18.8112 45.8118C18.066 45.8118 17.3513 46.1075 16.8239 46.6339L15.8625 47.5942L9.72672 44.1391L14.1921 32.8398L18.2357 35.2572C18.3422 35.3209 18.4607 35.3617 18.5838 35.3771C18.7068 35.3925 18.8318 35.3821 18.9506 35.3466L22.3485 34.3351C22.9162 34.1678 23.5145 34.1321 24.0981 34.2305C24.6817 34.329 25.2352 34.5591 25.7166 34.9034L26.186 35.2417L21.4096 38.7862C21.0553 39.0493 20.767 39.3913 20.5677 39.7851C20.3684 40.179 20.2636 40.6138 20.2615 41.0552C20.2594 41.4966 20.3602 41.9324 20.5557 42.3281C20.7513 42.7238 21.0363 43.0685 21.3882 43.3349C22.0519 43.8332 22.8508 44.1193 23.6799 44.1557C24.5091 44.192 25.3299 43.977 26.0347 43.5387L29.7852 41.1785C30.2213 42.0482 31.0362 43.2301 32.4516 43.958C34.0922 44.8016 36.0866 44.823 38.386 44.0224L44.7005 48.57C44.8591 48.6845 44.991 48.8322 45.0871 49.0027C45.1831 49.1732 45.241 49.3625 45.2568 49.5576C45.2725 49.7526 45.2457 49.9488 45.1783 50.1325C45.1108 50.3162 45.0043 50.4831 44.8661 50.6216V50.618ZM46.0146 47.3107L39.046 42.2948C38.9251 42.208 38.7844 42.1527 38.6367 42.134C38.489 42.1153 38.3389 42.1337 38.2001 42.1876C36.2105 42.9597 34.558 43.0216 33.2856 42.3771C31.6009 41.5204 31.0851 39.6475 31.0803 39.6368C31.0455 39.5005 30.979 39.3743 30.8862 39.2686C30.7934 39.1628 30.677 39.0804 30.5464 39.0282C30.4157 38.9759 30.2746 38.9553 30.1345 38.9679C29.9943 38.9805 29.8592 39.026 29.74 39.1007L25.0839 42.0208C24.6861 42.268 24.2228 42.389 23.7549 42.3677C23.287 42.3464 22.8366 42.184 22.4629 41.9017C22.3322 41.803 22.2263 41.6751 22.1537 41.5283C22.081 41.3816 22.0436 41.2199 22.0445 41.0561C22.0453 40.8923 22.0843 40.731 22.1583 40.5849C22.2324 40.4388 22.3395 40.3121 22.4712 40.2147L30.1605 34.5078C30.5895 34.1903 31.0792 33.9646 31.5993 33.8449C32.1194 33.7252 32.6585 33.714 33.1831 33.812L41.3419 35.3442C41.5274 35.3797 41.7194 35.3551 41.8899 35.2739L46.8414 32.9221L51.4724 44.6407L46.0146 47.3107ZM53.9315 45.993L47.5753 29.909L49.7508 29.1334L52.6019 37.2528C52.6809 37.4765 52.8455 37.6597 53.0595 37.762C53.2736 37.8644 53.5195 37.8775 53.7432 37.7985C53.9669 37.7195 54.1501 37.5549 54.2524 37.3408C54.3548 37.1268 54.3679 36.8808 54.2889 36.6571L51.4295 28.5293L52.9128 28.0015L58.9616 43.8175L53.9315 45.993Z" fill="white"/>
<path d="M30.499 27.9981C33.2678 27.9981 35.9743 27.177 38.2765 25.6388C40.5786 24.1006 42.3729 21.9142 43.4324 19.3562C44.492 16.7982 44.7692 13.9835 44.2291 11.268C43.6889 8.55241 42.3556 6.05802 40.3978 4.10022C38.44 2.14243 35.9456 0.809149 33.2301 0.268994C30.5146 -0.271162 27.6998 0.00606556 25.1418 1.06562C22.5838 2.12517 20.3975 3.91946 18.8593 6.22159C17.321 8.52372 16.5 11.2303 16.5 13.999C16.5041 17.7105 17.9803 21.2689 20.6047 23.8933C23.2292 26.5177 26.7875 27.994 30.499 27.9981V27.9981ZM30.499 1.78712C32.9143 1.78712 35.2754 2.50333 37.2836 3.84519C39.2918 5.18706 40.8571 7.0943 41.7814 9.32573C42.7057 11.5572 42.9475 14.0126 42.4763 16.3815C42.0051 18.7503 40.842 20.9263 39.1342 22.6342C37.4263 24.342 35.2503 25.5051 32.8815 25.9763C30.5126 26.4475 28.0572 26.2057 25.8257 25.2814C23.5943 24.3571 21.6871 22.7918 20.3452 20.7836C19.0033 18.7754 18.2871 16.4143 18.2871 13.999C18.2906 10.7613 19.5783 7.65716 21.8677 5.36773C24.1572 3.07831 27.2613 1.79058 30.499 1.78712V1.78712Z" fill="white"/>
<path d="M30.499 24.4238C32.5609 24.4238 34.5764 23.8124 36.2907 22.6669C38.0051 21.5214 39.3413 19.8933 40.1303 17.9884C40.9193 16.0835 41.1258 13.9875 40.7235 11.9652C40.3213 9.94303 39.3284 8.08551 37.8705 6.62758C36.4125 5.16964 34.555 4.17678 32.5328 3.77453C30.5106 3.37229 28.4145 3.57874 26.5096 4.36776C24.6047 5.15679 22.9766 6.49297 21.8311 8.20732C20.6856 9.92167 20.0742 11.9372 20.0742 13.999C20.0774 16.7629 21.1767 19.4126 23.1311 21.367C25.0854 23.3213 27.7352 24.4207 30.499 24.4238V24.4238ZM30.499 5.36133C32.2074 5.36133 33.8774 5.86792 35.2979 6.81705C36.7183 7.76617 37.8254 9.11519 38.4792 10.6935C39.133 12.2719 39.304 14.0086 38.9707 15.6842C38.6375 17.3597 37.8148 18.8988 36.6068 20.1068C35.3988 21.3148 33.8597 22.1375 32.1842 22.4708C30.5086 22.804 28.7719 22.633 27.1935 21.9792C25.6152 21.3255 24.2662 20.2183 23.317 18.7979C22.3679 17.3774 21.8613 15.7074 21.8613 13.999C21.8639 11.7089 22.7747 9.51338 24.394 7.89404C26.0134 6.27471 28.2089 5.36386 30.499 5.36133Z" fill="white"/>
<path d="M48.4824 13.999C48.4824 14.1164 48.5055 14.2326 48.5504 14.341C48.5953 14.4494 48.6612 14.5479 48.7441 14.6309C48.8271 14.7138 48.9256 14.7797 49.034 14.8246C49.1424 14.8695 49.2586 14.8926 49.376 14.8926H54.3275C54.5644 14.8926 54.7917 14.7984 54.9593 14.6309C55.1269 14.4633 55.221 14.236 55.221 13.999C55.221 13.762 55.1269 13.5348 54.9593 13.3672C54.7917 13.1996 54.5644 13.1055 54.3275 13.1055H49.376C49.139 13.1055 48.9117 13.1996 48.7441 13.3672C48.5766 13.5348 48.4824 13.762 48.4824 13.999V13.999Z" fill="white"/>
<path d="M47.5197 9.92489C47.6785 9.92612 47.8348 9.88499 47.9724 9.80575L51.6849 7.62428C51.8902 7.50437 52.0396 7.30778 52.1 7.07775C52.1605 6.84773 52.127 6.60312 52.0071 6.39773C51.8872 6.19234 51.6906 6.043 51.4606 5.98257C51.2306 5.92213 50.986 5.95554 50.7806 6.07546L47.067 8.26049C46.8959 8.35897 46.7622 8.51132 46.6868 8.69377C46.6115 8.87622 46.5986 9.07849 46.6503 9.269C46.7021 9.45951 46.8154 9.62754 46.9727 9.74684C47.1299 9.86615 47.3223 9.93001 47.5197 9.92846V9.92489Z" fill="white"/>
<path d="M47.0681 19.737L50.7817 21.922C50.8834 21.9814 50.9958 22.0201 51.1125 22.0361C51.2292 22.052 51.3478 22.0448 51.4617 22.0149C51.5756 21.985 51.6825 21.9329 51.7763 21.8617C51.8701 21.7904 51.9489 21.7014 52.0083 21.5997C52.0677 21.498 52.1064 21.3856 52.1224 21.2689C52.1383 21.1523 52.1311 21.0336 52.1012 20.9197C52.0712 20.8058 52.0192 20.6989 51.9479 20.6051C51.8767 20.5114 51.7877 20.4325 51.686 20.3732L47.9736 18.1929C47.8724 18.1312 47.7599 18.0904 47.6427 18.0726C47.5255 18.0548 47.406 18.0606 47.291 18.0894C47.1761 18.1183 47.068 18.1698 46.9732 18.2408C46.8783 18.3119 46.7985 18.4011 46.7385 18.5033C46.6784 18.6054 46.6393 18.7185 46.6233 18.836C46.6074 18.9534 46.615 19.0729 46.6457 19.1874C46.6764 19.3018 46.7295 19.4091 46.802 19.5028C46.8746 19.5966 46.965 19.6749 47.0681 19.7334V19.737Z" fill="white"/>
<path d="M6.6709 14.8926H11.6224C11.8594 14.8926 12.0866 14.7984 12.2542 14.6309C12.4218 14.4633 12.5159 14.236 12.5159 13.999C12.5159 13.762 12.4218 13.5348 12.2542 13.3672C12.0866 13.1996 11.8594 13.1055 11.6224 13.1055H6.6709C6.43391 13.1055 6.20663 13.1996 6.03906 13.3672C5.87149 13.5348 5.77734 13.762 5.77734 13.999C5.77734 14.236 5.87149 14.4633 6.03906 14.6309C6.20663 14.7984 6.43391 14.8926 6.6709 14.8926V14.8926Z" fill="white"/>
<path d="M9.31375 7.62428L13.0262 9.80455C13.1274 9.8662 13.2399 9.9071 13.3571 9.92486C13.4742 9.94262 13.5938 9.93689 13.7087 9.90801C13.8237 9.87912 13.9317 9.82766 14.0266 9.75662C14.1215 9.68557 14.2012 9.59636 14.2613 9.49419C14.3214 9.39201 14.3605 9.27891 14.3764 9.16146C14.3923 9.04401 14.3847 8.92458 14.3541 8.81009C14.3234 8.69561 14.2702 8.58838 14.1977 8.49464C14.1252 8.4009 14.0347 8.32252 13.9316 8.26407L10.218 6.07545C10.1163 6.01608 10.0039 5.97731 9.88725 5.96138C9.77057 5.94544 9.6519 5.95264 9.538 5.98256C9.30798 6.043 9.11139 6.19234 8.99147 6.39773C8.87156 6.60312 8.83814 6.84773 8.89858 7.07775C8.95902 7.30777 9.10836 7.50437 9.31375 7.62428V7.62428Z" fill="white"/>
<path d="M13.0262 18.1971L9.31375 20.3738C9.10836 20.4937 8.95902 20.6903 8.89858 20.9204C8.83814 21.1504 8.87156 21.395 8.99147 21.6004C9.11139 21.8058 9.30798 21.9551 9.538 22.0156C9.76803 22.076 10.0126 22.0426 10.218 21.9227L13.9316 19.7412C14.0347 19.6827 14.1252 19.6044 14.1977 19.5106C14.2702 19.4169 14.3234 19.3097 14.3541 19.1952C14.3847 19.0807 14.3923 18.9612 14.3764 18.8438C14.3605 18.7264 14.3214 18.6133 14.2613 18.5111C14.2012 18.4089 14.1215 18.3197 14.0266 18.2486C13.9317 18.1776 13.8237 18.1261 13.7087 18.0973C13.5938 18.0684 13.4742 18.0626 13.3571 18.0804C13.2399 18.0982 13.1274 18.1391 13.0262 18.2007V18.1971Z" fill="white"/>
<path d="M28.4941 17.8861C28.5778 17.9762 28.6792 18.048 28.792 18.0971C28.9047 18.1463 29.0264 18.1716 29.1493 18.1716C29.2723 18.1716 29.394 18.1463 29.5067 18.0971C29.6195 18.048 29.7209 17.9762 29.8046 17.8861L35.9213 11.3334C36.0014 11.2473 36.0638 11.1463 36.1049 11.0362C36.1459 10.926 36.1649 10.8089 36.1607 10.6914C36.1565 10.5739 36.1292 10.4584 36.0804 10.3514C36.0315 10.2445 35.9621 10.1482 35.876 10.0681C35.79 9.988 35.689 9.92563 35.5788 9.88455C35.4687 9.84347 35.3515 9.82449 35.234 9.8287C35.1165 9.8329 35.001 9.86021 34.8941 9.90905C34.7871 9.9579 34.6909 10.0273 34.6107 10.1134L29.1481 15.9656L26.3865 13.0073C26.2247 12.8335 26.0005 12.7311 25.7632 12.7226C25.5259 12.7141 25.295 12.8003 25.1212 12.962C24.9474 13.1238 24.845 13.348 24.8365 13.5853C24.828 13.8226 24.9141 14.0535 25.0759 14.2273L28.4941 17.8861Z" fill="white"/>
</g>
<defs>
<clipPath id="clip0_437_74">
<rect width="61" height="61" fill="white"/>
</clipPath>
</defs>
</svg>
