<svg width="46" height="46" viewBox="0 0 46 46" fill="none" xmlns="http://www.w3.org/2000/svg">
<g clip-path="url(#clip0_207_8666)">
<path d="M32.6442 2.22656C28.9831 2.22656 25.5138 3.71746 22.999 6.34431C20.4842 3.71746 17.0149 2.22656 13.3538 2.22656C5.24119 2.22656 -0.000976562 7.46873 -0.000976562 15.5814C-0.000976562 24.4261 19.3068 43.7749 22.9991 43.7749C26.6913 43.7749 45.999 24.4261 45.999 15.5814C45.999 7.46873 40.757 2.22656 32.6442 2.22656ZM22.9991 42.2911C20.7914 42.2911 1.48297 24.15 1.48297 15.5814C1.48297 6.82881 7.6147 3.7104 13.354 3.7104C16.86 3.7104 20.169 5.24879 22.4315 7.93161C22.7142 8.26624 23.2836 8.26624 23.5663 7.93161C25.8292 5.24879 29.1382 3.7104 32.6443 3.7104C38.3836 3.7104 44.5153 6.82881 44.5153 15.5814C44.5152 24.15 25.2066 42.2911 22.9991 42.2911Z" fill="#036C5F"/>
<path d="M25.8084 13.3789C25.1852 13.3789 24.618 13.6479 24.1165 13.8853C23.7173 14.0748 23.339 14.2533 23.0392 14.2533C22.7395 14.2533 22.361 14.0748 21.962 13.8853C21.4604 13.6482 20.8932 13.3789 20.27 13.3789C17.9964 13.3789 16.3467 15.7646 16.3467 19.0513C16.3467 20.2829 17.201 31.136 20.27 31.136C21.38 31.136 21.6789 29.6377 22.1333 27.37C22.3399 26.3361 22.7147 24.4657 23.0827 24.0045C23.5215 24.3985 23.8977 26.533 24.0832 27.5855C24.4598 29.7234 24.7082 31.136 25.8082 31.136C28.8776 31.136 29.7315 20.283 29.732 19.0513C29.7317 15.7646 28.0821 13.3789 25.8084 13.3789ZM25.9865 29.5901C25.8077 29.1064 25.6244 28.067 25.4961 27.3365C25.0803 24.9753 24.6499 22.5336 23.0362 22.5277C21.6376 22.534 21.2151 24.6445 20.7261 27.0887C20.5618 27.9119 20.3255 29.0919 20.1103 29.5987C19.0954 28.6761 17.7811 22.3741 17.7811 19.0513C17.7811 16.6352 18.8513 14.8134 20.2699 14.8134C20.5696 14.8134 20.9481 14.9919 21.3471 15.1814C21.8487 15.4184 22.4159 15.6877 23.0391 15.6877C23.6623 15.6877 24.2295 15.4188 24.7311 15.1814C25.1303 14.9919 25.5083 14.8134 25.8083 14.8134C27.2269 14.8134 28.2971 16.6352 28.2971 19.0513C28.2972 22.3656 26.9892 28.6442 25.9865 29.5901Z" fill="#036C5F"/>
<path d="M13.3548 5.19531C7.62752 5.19531 2.96777 9.85505 2.96777 15.5824C2.96777 15.9919 3.2998 16.3244 3.70975 16.3244C4.11969 16.3244 4.45172 15.992 4.45172 15.5824C4.45172 10.6733 8.44557 6.67915 13.355 6.67915C13.7649 6.67915 14.0969 6.3468 14.0969 5.93718C14.0968 5.52766 13.7648 5.19531 13.3548 5.19531Z" fill="#036C5F"/>
</g>
<defs>
<clipPath id="clip0_207_8666">
<rect width="46" height="46" fill="white" transform="translate(-0.000976562)"/>
</clipPath>
</defs>
</svg>
